<?xml version="1.0" encoding="utf-8"?>
<!-- Generator: Adobe Illustrator 26.1.0, SVG Export Plug-In . SVG Version: 6.00 Build 0)  -->
<svg version="1.1" id="Calque_1" xmlns="http://www.w3.org/2000/svg" xmlns:xlink="http://www.w3.org/1999/xlink" x="0px" y="0px"
	 viewBox="0 0 50 50" style="enable-background:new 0 0 50 50;" xml:space="preserve">
<style type="text/css">
	.st0{fill:none;stroke:#48B5A8;stroke-linecap:round;stroke-linejoin:round;}
</style>
<circle class="st0" cx="15.7" cy="19.2" r="4.1"/>
<path class="st0" d="M22.5,16.8h-0.7c-1.3-3.3-5.1-4.9-8.5-3.6c-1.6,0.7-2.9,2-3.6,3.6H9c-1.9,0-3.5,1.6-3.5,3.5v13.4
	c0,1.9,1.6,3.5,3.5,3.5h13.5c1.9,0,3.5-1.5,3.5-3.5c0,0,0,0,0,0V20.3C26,18.4,24.4,16.8,22.5,16.8C22.5,16.8,22.5,16.8,22.5,16.8z"
	/>
<path class="st0" d="M29.3,16.8h4.9c0.5,0,1,0.4,1,1v18.4c0,0.5-0.4,1-1,1h-4.9c-0.5,0-1-0.4-1-1V17.8
	C28.4,17.2,28.8,16.8,29.3,16.8z"/>
<line class="st0" x1="28.4" y1="20.2" x2="31.9" y2="20.2"/>
<line class="st0" x1="28.4" y1="23.7" x2="30.5" y2="23.7"/>
<line class="st0" x1="28.4" y1="30.2" x2="30.5" y2="30.2"/>
<line class="st0" x1="28.4" y1="26.7" x2="31.9" y2="26.7"/>
<line class="st0" x1="28.4" y1="33.3" x2="31.9" y2="33.3"/>
<line class="st0" x1="15.7" y1="17.1" x2="15.7" y2="19.2"/>
<line class="st0" x1="44.5" y1="20.3" x2="41" y2="17"/>
<polyline class="st0" points="37.7,33.1 41,36.2 41,17 37.8,20.3 "/>
<line class="st0" x1="44.5" y1="33.2" x2="41" y2="36.2"/>
</svg>
