<?xml version="1.0" encoding="utf-8"?>
<!-- Generator: Adobe Illustrator 26.1.0, SVG Export Plug-In . SVG Version: 6.00 Build 0)  -->
<svg version="1.1" id="Calque_1" xmlns="http://www.w3.org/2000/svg" xmlns:xlink="http://www.w3.org/1999/xlink" x="0px" y="0px"
	 viewBox="0 0 50 50" style="enable-background:new 0 0 50 50;" xml:space="preserve">
<style type="text/css">
	.st0{fill:none;stroke:#48B5A8;stroke-linecap:round;stroke-linejoin:round;}
</style>
<path class="st0" d="M10,36.1l16.7-23.6c0.6,1.1,0.9,2.4,1,3.7c0,2.1,0,3.5,0,3.5"/>
<path class="st0" d="M24.7,20.6c0,0-0.1-2.9,0.9-4.4c0.6-1,1-2.1,1.2-3.2"/>
<path class="st0" d="M25.6,37.5c0,0-0.5-5.9,3.2-5.5c3.7,0.4,4.7,2.7,7.9,0.8l3.3-2l-5.9-4.5c0,0,0.4-2.8-0.2-3.5s-2.4-3.4-2.4-3.4
	c1-2.2,1.4-4.6,0.9-7c-0.5,2.2-2.3,3.8-4.5,4.3"/>
<line class="st0" x1="31" y1="25.5" x2="30.9" y2="25"/>
</svg>
